<mxfile host="Electron" modified="2024-05-02T15:12:36.064Z" agent="Mozilla/5.0 (X11; Linux x86_64) AppleWebKit/537.36 (KHTML, like Gecko) draw.io/24.2.5 Chrome/120.0.6099.109 Electron/28.1.0 Safari/537.36" etag="TF8B8EbEn7az8eqQYYCI" version="24.2.5" type="device">
  <diagram id="C5RBs43oDa-KdzZeNtuy" name="Page-1">
    <mxGraphModel dx="794" dy="1128" grid="1" gridSize="10" guides="1" tooltips="1" connect="1" arrows="1" fold="1" page="1" pageScale="1" pageWidth="320" pageHeight="360" math="0" shadow="0">
      <root>
        <mxCell id="WIyWlLk6GJQsqaUBKTNV-0" />
        <mxCell id="WIyWlLk6GJQsqaUBKTNV-1" parent="WIyWlLk6GJQsqaUBKTNV-0" />
        <mxCell id="fwNFfMyw5ERBlZHOY2xI-1" value="Coin" style="swimlane;fontStyle=1;align=center;verticalAlign=top;childLayout=stackLayout;horizontal=1;startSize=30;horizontalStack=0;resizeParent=1;resizeParentMax=0;resizeLast=0;collapsible=0;marginBottom=0;whiteSpace=wrap;html=1;" parent="WIyWlLk6GJQsqaUBKTNV-1" vertex="1">
          <mxGeometry x="40" y="40" width="240" height="272" as="geometry" />
        </mxCell>
        <mxCell id="T-qr_eHcIHXwJSwKchMV-2" value="+ DOLLAR: String" style="text;strokeColor=none;fillColor=none;align=left;verticalAlign=middle;spacingLeft=4;spacingRight=4;overflow=hidden;rotatable=0;points=[[0,0.5],[1,0.5]];portConstraint=eastwest;whiteSpace=wrap;html=1;fontSize=10;fontFamily=Courier New;fontStyle=4" parent="fwNFfMyw5ERBlZHOY2xI-1" vertex="1">
          <mxGeometry y="30" width="240" height="20" as="geometry" />
        </mxCell>
        <mxCell id="fwNFfMyw5ERBlZHOY2xI-2" value="+ QUARTER: String" style="text;strokeColor=none;fillColor=none;align=left;verticalAlign=middle;spacingLeft=4;spacingRight=4;overflow=hidden;rotatable=0;points=[[0,0.5],[1,0.5]];portConstraint=eastwest;whiteSpace=wrap;html=1;fontSize=10;fontFamily=Courier New;fontStyle=4" parent="fwNFfMyw5ERBlZHOY2xI-1" vertex="1">
          <mxGeometry y="50" width="240" height="20" as="geometry" />
        </mxCell>
        <mxCell id="fwNFfMyw5ERBlZHOY2xI-3" value="+ DIME: String" style="text;strokeColor=none;fillColor=none;align=left;verticalAlign=middle;spacingLeft=4;spacingRight=4;overflow=hidden;rotatable=0;points=[[0,0.5],[1,0.5]];portConstraint=eastwest;whiteSpace=wrap;html=1;fontSize=10;fontFamily=Courier New;fontStyle=4" parent="fwNFfMyw5ERBlZHOY2xI-1" vertex="1">
          <mxGeometry y="70" width="240" height="20" as="geometry" />
        </mxCell>
        <mxCell id="T-qr_eHcIHXwJSwKchMV-1" value="+ NICKEL: String" style="text;strokeColor=none;fillColor=none;align=left;verticalAlign=middle;spacingLeft=4;spacingRight=4;overflow=hidden;rotatable=0;points=[[0,0.5],[1,0.5]];portConstraint=eastwest;whiteSpace=wrap;html=1;fontSize=10;fontFamily=Courier New;fontStyle=4" parent="fwNFfMyw5ERBlZHOY2xI-1" vertex="1">
          <mxGeometry y="90" width="240" height="20" as="geometry" />
        </mxCell>
        <mxCell id="T-qr_eHcIHXwJSwKchMV-0" value="+ PENNY: String" style="text;strokeColor=none;fillColor=none;align=left;verticalAlign=middle;spacingLeft=4;spacingRight=4;overflow=hidden;rotatable=0;points=[[0,0.5],[1,0.5]];portConstraint=eastwest;whiteSpace=wrap;html=1;fontSize=10;fontFamily=Courier New;fontStyle=4" parent="fwNFfMyw5ERBlZHOY2xI-1" vertex="1">
          <mxGeometry y="110" width="240" height="20" as="geometry" />
        </mxCell>
        <mxCell id="fwNFfMyw5ERBlZHOY2xI-4" value="- coin_type: String" style="text;strokeColor=none;fillColor=none;align=left;verticalAlign=middle;spacingLeft=4;spacingRight=4;overflow=hidden;rotatable=0;points=[[0,0.5],[1,0.5]];portConstraint=eastwest;whiteSpace=wrap;html=1;fontSize=10;fontFamily=Courier New;" parent="fwNFfMyw5ERBlZHOY2xI-1" vertex="1">
          <mxGeometry y="130" width="240" height="20" as="geometry" />
        </mxCell>
        <mxCell id="fwNFfMyw5ERBlZHOY2xI-5" value="- amount: Int" style="text;strokeColor=none;fillColor=none;align=left;verticalAlign=middle;spacingLeft=4;spacingRight=4;overflow=hidden;rotatable=0;points=[[0,0.5],[1,0.5]];portConstraint=eastwest;whiteSpace=wrap;html=1;fontSize=10;fontFamily=Courier New;" parent="fwNFfMyw5ERBlZHOY2xI-1" vertex="1">
          <mxGeometry y="150" width="240" height="20" as="geometry" />
        </mxCell>
        <mxCell id="fwNFfMyw5ERBlZHOY2xI-6" value="" style="line;strokeWidth=1;fillColor=none;align=left;verticalAlign=middle;spacingTop=-1;spacingLeft=3;spacingRight=3;rotatable=0;labelPosition=right;points=[];portConstraint=eastwest;strokeColor=inherit;" parent="fwNFfMyw5ERBlZHOY2xI-1" vertex="1">
          <mxGeometry y="170" width="240" height="8" as="geometry" />
        </mxCell>
        <mxCell id="fwNFfMyw5ERBlZHOY2xI-7" value="+ Coin(coin_type: String, amount: Int)" style="text;strokeColor=none;fillColor=none;align=left;verticalAlign=middle;spacingLeft=4;spacingRight=4;overflow=hidden;rotatable=0;points=[[0,0.5],[1,0.5]];portConstraint=eastwest;whiteSpace=wrap;html=1;fontSize=10;fontFamily=Courier New;" parent="fwNFfMyw5ERBlZHOY2xI-1" vertex="1">
          <mxGeometry y="178" width="240" height="22" as="geometry" />
        </mxCell>
        <mxCell id="fwNFfMyw5ERBlZHOY2xI-8" value="+ coin_type(&lt;span style=&quot;background-color: initial; font-size: 10px;&quot;&gt;): String&lt;/span&gt;" style="text;strokeColor=none;fillColor=none;align=left;verticalAlign=middle;spacingLeft=4;spacingRight=4;overflow=hidden;rotatable=0;points=[[0,0.5],[1,0.5]];portConstraint=eastwest;whiteSpace=wrap;html=1;fontSize=10;fontFamily=Courier New;" parent="fwNFfMyw5ERBlZHOY2xI-1" vertex="1">
          <mxGeometry y="200" width="240" height="18" as="geometry" />
        </mxCell>
        <mxCell id="fwNFfMyw5ERBlZHOY2xI-9" value="+ coin_type(coin_type: String&lt;span style=&quot;background-color: initial; font-size: 10px;&quot;&gt;)&lt;/span&gt;" style="text;strokeColor=none;fillColor=none;align=left;verticalAlign=middle;spacingLeft=4;spacingRight=4;overflow=hidden;rotatable=0;points=[[0,0.5],[1,0.5]];portConstraint=eastwest;whiteSpace=wrap;html=1;fontSize=10;fontFamily=Courier New;" parent="fwNFfMyw5ERBlZHOY2xI-1" vertex="1">
          <mxGeometry y="218" width="240" height="18" as="geometry" />
        </mxCell>
        <mxCell id="fwNFfMyw5ERBlZHOY2xI-10" value="+ amount(&lt;span style=&quot;background-color: initial; font-size: 10px;&quot;&gt;):&amp;nbsp;&lt;/span&gt;Float" style="text;strokeColor=none;fillColor=none;align=left;verticalAlign=middle;spacingLeft=4;spacingRight=4;overflow=hidden;rotatable=0;points=[[0,0.5],[1,0.5]];portConstraint=eastwest;whiteSpace=wrap;html=1;fontSize=10;fontFamily=Courier New;" parent="fwNFfMyw5ERBlZHOY2xI-1" vertex="1">
          <mxGeometry y="236" width="240" height="18" as="geometry" />
        </mxCell>
        <mxCell id="fwNFfMyw5ERBlZHOY2xI-11" value="+ amount(amount: Float)" style="text;strokeColor=none;fillColor=none;align=left;verticalAlign=middle;spacingLeft=4;spacingRight=4;overflow=hidden;rotatable=0;points=[[0,0.5],[1,0.5]];portConstraint=eastwest;whiteSpace=wrap;html=1;fontSize=10;fontFamily=Courier New;" parent="fwNFfMyw5ERBlZHOY2xI-1" vertex="1">
          <mxGeometry y="254" width="240" height="18" as="geometry" />
        </mxCell>
      </root>
    </mxGraphModel>
  </diagram>
</mxfile>
